<svg width="140" height="59" viewBox="0 0 140 59" fill="none" xmlns="http://www.w3.org/2000/svg">
<rect width="140" height="59" fill="white"/>
<path d="M112.174 36.0809L110.002 27.0694V38.5903H106.599V20.4097H110.787L113.3 30.0288L115.812 20.4097H120V38.5903H116.597V27.0694L114.425 36.0809H112.174Z" fill="black"/>
<path d="M97.606 39C95.5645 39 93.9767 38.4281 92.8425 37.2844C91.7258 36.1235 91.1675 34.4591 91.1675 32.2911V20.3841H94.884V32.5984C94.884 33.6226 95.1196 34.4079 95.5907 34.9542C96.0618 35.5004 96.7336 35.7736 97.606 35.7736C98.4785 35.7736 99.1503 35.5004 99.6214 34.9542C100.092 34.4079 100.328 33.6226 100.328 32.5984V20.3841H104.045V32.2911C104.045 34.4591 103.478 36.1235 102.343 37.2844C101.227 38.4281 99.6475 39 97.606 39Z" fill="black"/>
<path d="M82.0694 39C80.6561 39 79.4521 38.7354 78.4575 38.2062C77.463 37.677 76.6865 36.9259 76.1281 35.9528C75.5872 34.9798 75.2644 33.8104 75.1597 32.4447L78.9025 32.2655C79.0072 33.0337 79.2078 33.6824 79.5045 34.2116C79.8011 34.7408 80.1762 35.1334 80.6299 35.3895C81.0836 35.6456 81.6245 35.7736 82.2526 35.7736C82.811 35.7736 83.2821 35.6968 83.666 35.5431C84.0673 35.3895 84.3727 35.1676 84.582 34.8774C84.7914 34.5701 84.8961 34.2031 84.8961 33.7763C84.8961 33.3154 84.7827 32.9057 84.5559 32.5472C84.329 32.1887 83.9277 31.8643 83.3519 31.5741C82.7935 31.2839 81.9996 31.0108 80.9701 30.7547C79.7313 30.4474 78.7018 30.0804 77.8817 29.6536C77.0791 29.2269 76.4858 28.6806 76.1019 28.0148C75.7181 27.3491 75.5261 26.5126 75.5261 25.5054C75.5261 24.3958 75.7704 23.4313 76.259 22.6119C76.765 21.7754 77.4891 21.1352 78.4314 20.6914C79.391 20.2305 80.5514 20 81.9124 20C83.2385 20 84.3727 20.239 85.3149 20.717C86.2571 21.195 86.99 21.8863 87.5134 22.7911C88.0543 23.6959 88.3684 24.7969 88.4557 26.0943L84.6867 26.2736C84.5995 25.642 84.4337 25.0957 84.1894 24.6348C83.9452 24.1739 83.6136 23.8239 83.1949 23.5849C82.7935 23.3459 82.3137 23.2264 81.7553 23.2264C81.005 23.2264 80.4031 23.4142 79.9494 23.7898C79.5132 24.1653 79.2951 24.6774 79.2951 25.3261C79.2951 25.7529 79.3998 26.1199 79.6092 26.4272C79.836 26.7345 80.2199 27.0076 80.7608 27.2466C81.3191 27.4856 82.0781 27.7332 83.0378 27.9892C84.4512 28.3136 85.5679 28.7403 86.388 29.2695C87.2081 29.7987 87.7926 30.4218 88.1416 31.1388C88.4906 31.8558 88.665 32.6923 88.665 33.6482C88.665 34.7408 88.4033 35.6882 87.8799 36.4906C87.3564 37.2758 86.5974 37.8904 85.6028 38.3342C84.6257 38.7781 83.4479 39 82.0694 39Z" fill="black"/>
<path d="M60.4083 38.5903V20.4097H66.4019C67.6931 20.4097 68.8273 20.6572 69.8044 21.1523C70.7816 21.6303 71.5406 22.3131 72.0815 23.2008C72.6399 24.0714 72.9191 25.0872 72.9191 26.248C72.9191 27.4259 72.6399 28.4501 72.0815 29.3208C71.5406 30.1914 70.7816 30.8742 69.8044 31.3693C68.8273 31.8473 67.6931 32.0863 66.4019 32.0863H64.1249V38.5903H60.4083ZM64.1249 28.783H66.0093C67.0563 28.783 67.8327 28.5696 68.3388 28.1429C68.8448 27.7161 69.0978 27.0845 69.0978 26.248C69.0978 25.4115 68.8448 24.7799 68.3388 24.3531C67.8327 23.9093 67.0563 23.6873 66.0093 23.6873H64.1249V28.783Z" fill="black"/>
<path d="M44.61 38.5903V35.3127H48.6668V23.6873H44.61V20.4097H56.4402V23.6873H52.3834V35.3127H56.4402V38.5903H44.61Z" fill="black"/>
<path d="M28.9061 38.5903V35.3127H40.7363V38.5903H28.9061Z" fill="black"/>
<path d="M20 38.5903L24.4494 29.4231L20.0785 20.4097H24.1877C24.1877 20.4097 27.1888 26.9418 28.2927 29.4218L24.0307 38.5903H20Z" fill="black"/>
</svg>
